<svg width="32" height="32" viewBox="0 0 32 32" fill="none" xmlns="http://www.w3.org/2000/svg">
<path d="M21.1247 18.4677H13.1585C12.874 18.4677 12.6369 18.2781 12.5579 18.0094L10.2502 10.2645H7.5V9H10.7244C11.0089 9 11.246 9.18967 11.325 9.45837L13.6327 17.2191H20.6189L21.8202 12.2402H14.1227V10.9757H22.6263C22.8159 10.9757 23.0056 11.0706 23.1163 11.2128C23.2427 11.3709 23.2743 11.5606 23.2269 11.7502L21.7253 17.9936C21.6621 18.2623 21.4092 18.4677 21.1247 18.4677Z" fill="black"/>
<path d="M19.9872 23.9999C18.8176 23.9999 17.8692 23.0515 17.8692 21.8819C17.8692 20.7123 18.8176 19.7639 19.9872 19.7639C21.1568 19.7639 22.1052 20.7123 22.1052 21.8819C22.1052 23.0515 21.141 23.9999 19.9872 23.9999ZM19.9872 21.0284C19.513 21.0284 19.1337 21.4077 19.1337 21.8819C19.1337 22.3561 19.513 22.7354 19.9872 22.7354C20.4614 22.7354 20.8407 22.3561 20.8407 21.8819C20.8407 21.4077 20.4456 21.0284 19.9872 21.0284Z" fill="black"/>
<path d="M14.1391 24.0001C12.9694 24.0001 12.0211 23.0518 12.0211 21.8822C12.0211 20.7125 12.9694 19.7642 14.1391 19.7642C15.3087 19.7642 16.257 20.7125 16.257 21.8822C16.257 23.0518 15.3087 24.0001 14.1391 24.0001ZM14.1391 21.0286C13.6649 21.0286 13.2855 21.408 13.2855 21.8822C13.2855 22.3563 13.6649 22.7357 14.1391 22.7357C14.6132 22.7357 14.9926 22.3563 14.9926 21.8822C14.9926 21.408 14.6132 21.0286 14.1391 21.0286Z" fill="black"/>
</svg>
